<svg width="1040" height="720" viewBox="0 0 1040 720" xmlns="http://www.w3.org/2000/svg" font-family="Segoe UI, Helvetica, Arial, sans-serif">
  <defs>
    <marker id="arrow" viewBox="0 0 10 10" refX="8" refY="5" markerWidth="7" markerHeight="7" orient="auto-start-reverse">
      <path d="M2 1L8 5L2 9" fill="none" stroke="#5a6885" stroke-width="1.6" stroke-linecap="round" stroke-linejoin="round"/>
    </marker>
    <radialGradient id="sun" cx="50%" cy="50%" r="50%">
      <stop offset="0%" stop-color="#ffd27a"/><stop offset="60%" stop-color="#f6a04d"/><stop offset="100%" stop-color="#ff5d6c"/>
    </radialGradient>
  </defs>

  <rect width="1040" height="720" fill="#070a12"/>
  <circle cx="56" cy="44" r="16" fill="url(#sun)"/>
  <text x="84" y="42" font-size="20" font-weight="700" fill="#e6eaf2">Aditya-L1 · Solar Flare Operations Center</text>
  <text x="84" y="62" font-size="13" fill="#8aa0c0">SoLEXS (soft X-ray) + HEL1OS (hard X-ray) — nowcasting &amp; forecasting · Problem Statement 15</text>

  <text x="40" y="120" font-size="12" font-weight="600" fill="#3fbdf0" letter-spacing="2">DATA</text>
  <text x="40" y="250" font-size="12" font-weight="600" fill="#3ddc97" letter-spacing="2">pipeline/  (science only)</text>
  <text x="40" y="500" font-size="12" font-weight="600" fill="#f6a04d" letter-spacing="2">backend/  (FastAPI)</text>
  <text x="40" y="620" font-size="12" font-weight="600" fill="#a98bf5" letter-spacing="2">frontend/  (React + Vite + Plotly)</text>

  <g>
    <rect x="120" y="132" width="200" height="64" rx="10" fill="#0f1626" stroke="#26344f"/>
    <text x="220" y="158" text-anchor="middle" font-size="13" font-weight="600" fill="#cfe6f5">SoLEXS L1 (soft X-ray)</text>
    <text x="220" y="178" text-anchor="middle" font-size="11" fill="#8aa0c0">.fits / .csv / .parquet</text>
  </g>
  <g>
    <rect x="360" y="132" width="200" height="64" rx="10" fill="#0f1626" stroke="#26344f"/>
    <text x="460" y="158" text-anchor="middle" font-size="13" font-weight="600" fill="#f6c89a">HEL1OS L1 (hard X-ray)</text>
    <text x="460" y="178" text-anchor="middle" font-size="11" fill="#8aa0c0">.fits / .csv / .parquet</text>
  </g>
  <g>
    <rect x="600" y="132" width="200" height="64" rx="10" fill="#0f1626" stroke="#26344f" stroke-dasharray="4 4"/>
    <text x="700" y="158" text-anchor="middle" font-size="13" font-weight="600" fill="#cfd6e6">Synthetic showcase</text>
    <text x="700" y="178" text-anchor="middle" font-size="11" fill="#8aa0c0">validation / demo data</text>
  </g>

  <rect x="100" y="226" width="840" height="232" rx="14" fill="#0b101b" stroke="#1b3a2e"/>
  <g>
    <rect x="120" y="252" width="180" height="58" rx="9" fill="#10261c" stroke="#2f5a44"/>
    <text x="210" y="276" text-anchor="middle" font-size="12.5" font-weight="600" fill="#bdf0d4">data_loader.py</text>
    <text x="210" y="294" text-anchor="middle" font-size="10.5" fill="#7fb79a">ingest → canonical schema</text>
  </g>
  <g>
    <rect x="330" y="252" width="180" height="58" rx="9" fill="#10261c" stroke="#2f5a44"/>
    <text x="420" y="276" text-anchor="middle" font-size="12.5" font-weight="600" fill="#bdf0d4">preprocessing.py</text>
    <text x="420" y="294" text-anchor="middle" font-size="10.5" fill="#7fb79a">background · excess · slopes</text>
  </g>
  <g>
    <rect x="560" y="240" width="170" height="84" rx="9" fill="#10261c" stroke="#2f5a44"/>
    <text x="645" y="266" text-anchor="middle" font-size="12.5" font-weight="600" fill="#bdf0d4">nowcasting.py</text>
    <text x="645" y="284" text-anchor="middle" font-size="10.5" fill="#7fb79a">SXR + HXR detection</text>
    <text x="645" y="300" text-anchor="middle" font-size="10.5" fill="#7fb79a">→ master catalogue</text>
  </g>
  <g>
    <rect x="560" y="350" width="170" height="84" rx="9" fill="#10261c" stroke="#2f5a44"/>
    <text x="645" y="376" text-anchor="middle" font-size="12.5" font-weight="600" fill="#bdf0d4">forecasting.py</text>
    <text x="645" y="394" text-anchor="middle" font-size="10.5" fill="#7fb79a">precursor model · N-min</text>
    <text x="645" y="410" text-anchor="middle" font-size="10.5" fill="#7fb79a">TPR / FAR / lead time</text>
  </g>
  <g>
    <rect x="760" y="294" width="160" height="96" rx="9" fill="#10261c" stroke="#2f5a44"/>
    <text x="840" y="332" text-anchor="middle" font-size="12.5" font-weight="600" fill="#bdf0d4">outputs/</text>
    <text x="840" y="350" text-anchor="middle" font-size="10.5" fill="#7fb79a">catalogues · alerts</text>
    <text x="840" y="366" text-anchor="middle" font-size="10.5" fill="#7fb79a">model · timeline · summary</text>
  </g>

  <rect x="100" y="476" width="840" height="92" rx="14" fill="#0b101b" stroke="#3a2c14"/>
  <g>
    <rect x="120" y="498" width="240" height="50" rx="9" fill="#241a0e" stroke="#5a4420"/>
    <text x="240" y="528" text-anchor="middle" font-size="12.5" font-weight="600" fill="#f6c89a">app.py — REST /api/*</text>
  </g>
  <g>
    <rect x="380" y="498" width="240" height="50" rx="9" fill="#241a0e" stroke="#5a4420"/>
    <text x="500" y="528" text-anchor="middle" font-size="12.5" font-weight="600" fill="#f6c89a">live.py — WebSocket /ws/live</text>
  </g>
  <g>
    <rect x="640" y="498" width="280" height="50" rx="9" fill="#241a0e" stroke="#5a4420"/>
    <text x="780" y="528" text-anchor="middle" font-size="12.5" font-weight="600" fill="#f6c89a">services.py — run + artifacts</text>
  </g>

  <rect x="100" y="586" width="840" height="96" rx="14" fill="#0b101b" stroke="#2e2456"/>
  <g>
    <rect x="120" y="608" width="250" height="54" rx="9" fill="#191331" stroke="#41357a"/>
    <text x="245" y="632" text-anchor="middle" font-size="12.5" font-weight="600" fill="#cfc3f5">LiveMonitor + LiveChart</text>
    <text x="245" y="650" text-anchor="middle" font-size="10.5" fill="#9a8fc7">streaming Plotly light curves</text>
  </g>
  <g>
    <rect x="390" y="608" width="250" height="54" rx="9" fill="#191331" stroke="#41357a"/>
    <text x="515" y="632" text-anchor="middle" font-size="12.5" font-weight="600" fill="#cfc3f5">KPIs · Alert feed · Gauge</text>
    <text x="515" y="650" text-anchor="middle" font-size="10.5" fill="#9a8fc7">useLiveReplay (WS) · usePoll</text>
  </g>
  <g>
    <rect x="660" y="608" width="260" height="54" rx="9" fill="#191331" stroke="#41357a"/>
    <text x="790" y="632" text-anchor="middle" font-size="12.5" font-weight="600" fill="#cfc3f5">Catalogue · Run controls</text>
    <text x="790" y="650" text-anchor="middle" font-size="10.5" fill="#9a8fc7">tables · upload · pipeline run</text>
  </g>

  <g stroke="#5a6885" stroke-width="1.6" fill="none">
    <path d="M220 196 L220 250" marker-end="url(#arrow)"/>
    <path d="M460 196 L430 250" marker-end="url(#arrow)"/>
    <path d="M700 196 L300 248" marker-end="url(#arrow)" stroke-dasharray="4 4"/>
    <path d="M300 281 L330 281" marker-end="url(#arrow)"/>
    <path d="M510 281 L558 281" marker-end="url(#arrow)"/>
    <path d="M730 282 L760 320" marker-end="url(#arrow)"/>
    <path d="M730 392 L760 360" marker-end="url(#arrow)"/>
    <path d="M520 458 L520 476" marker-end="url(#arrow)"/>
    <path d="M520 568 L520 586" marker-end="url(#arrow)"/>
  </g>
  <text x="548" y="472" font-size="10.5" fill="#6f7d99">read outputs/</text>
  <text x="548" y="582" font-size="10.5" fill="#6f7d99">HTTP /api/*  +  WS /ws/live</text>
</svg>
